HIERARCHY
ROOT Hips
{
	OFFSET 0.000000 0.000000 0.000000
	CHANNELS 6 Xposition Yposition Zposition Xrotation Yrotation Zrotation
	JOINT LeftUpLeg_virtual
	{
		OFFSET 0.000000 0.000000 0.000000
		CHANNELS 3 Xrotation Yrotation Zrotation
		JOINT LeftUpLeg
		{
			OFFSET 13.026900 -6.336304 -1.092800
			CHANNELS 3 Xrotation Yrotation Zrotation
			JOINT LeftLeg
			{
				OFFSET 0.524474 -46.096886 9.782700
				CHANNELS 3 Xrotation Yrotation Zrotation
				JOINT LeftFoot
				{
					OFFSET -0.524474 -53.427422 -12.948200
					CHANNELS 3 Xrotation Yrotation Zrotation
					JOINT LeftToeBase
					{
						OFFSET 0.192200 -14.009700 16.364100
						CHANNELS 3 Xrotation Yrotation Zrotation
						JOINT LeftToe_End
						{
							OFFSET -1.784700 -0.561700 9.474800
							CHANNELS 3 Xrotation Yrotation Zrotation
							End Site
							{
								OFFSET 0 0 0
							}
						}
					}
				}
			}
		}
	}
	JOINT RightUpLeg_virtual
	{
		OFFSET 0.000000 0.000000 0.000000
		CHANNELS 3 Xrotation Yrotation Zrotation
		JOINT RightUpLeg
		{
			OFFSET -12.883000 -6.336304 -1.092800
			CHANNELS 3 Xrotation Yrotation Zrotation
			JOINT RightLeg
			{
				OFFSET -0.524587 -46.096825 9.782800
				CHANNELS 3 Xrotation Yrotation Zrotation
				JOINT RightFoot
				{
					OFFSET 0.524587 -53.427383 -12.948300
					CHANNELS 3 Xrotation Yrotation Zrotation
					JOINT RightToeBase
					{
						OFFSET -0.192200 -14.009700 16.364100
						CHANNELS 3 Xrotation Yrotation Zrotation
						JOINT RightToe_End
						{
							OFFSET 1.784700 -0.561700 9.474800
							CHANNELS 3 Xrotation Yrotation Zrotation
							End Site
							{
								OFFSET 0 0 0
							}
						}
					}
				}
			}
		}
	}
	JOINT Spine_virtual
	{
		OFFSET 0.000000 0.000000 0.000000
		CHANNELS 3 Xrotation Yrotation Zrotation
		JOINT Spine
		{
			OFFSET 0.072000 7.257294 -0.789700
			CHANNELS 3 Xrotation Yrotation Zrotation
			JOINT Spine1
			{
				OFFSET 0.000000 12.508769 -0.658067
				CHANNELS 3 Xrotation Yrotation Zrotation
				JOINT Spine1_split
				{
					OFFSET 0.000000 12.508769 -0.658067
					CHANNELS 3 Xrotation Yrotation Zrotation
					JOINT Spine2
					{
						OFFSET 0.000000 12.508769 -0.658067
						CHANNELS 3 Xrotation Yrotation Zrotation
						JOINT Neck_virtual
						{
							OFFSET 0.000000 0.000000 0.000000
							CHANNELS 3 Xrotation Yrotation Zrotation
							JOINT Neck
							{
								OFFSET 0.000000 14.033295 7.520400
								CHANNELS 3 Xrotation Yrotation Zrotation
								JOINT Head
								{
									OFFSET 0.000000 8.198502 5.703100
									CHANNELS 3 Xrotation Yrotation Zrotation
									JOINT HeadTop_End
									{
										OFFSET 0.000000 17.760803 13.332701
										CHANNELS 3 Xrotation Yrotation Zrotation
										End Site
										{
											OFFSET 0 0 0
										}
									}
								}
							}
						}
						JOINT LeftShoulder_virtual
						{
							OFFSET 0.000000 0.000000 0.000000
							CHANNELS 3 Xrotation Yrotation Zrotation
							JOINT LeftShoulder
							{
								OFFSET 6.292450 5.785301 -0.669000
								CHANNELS 3 Xrotation Yrotation Zrotation
								JOINT LeftShoulder_split
								{
									OFFSET 6.292450 5.785301 -0.669000
									CHANNELS 3 Xrotation Yrotation Zrotation
									JOINT LeftArm
									{
										OFFSET 13.907140 -6.093903 1.965100
										CHANNELS 3 Xrotation Yrotation Zrotation
										JOINT LeftForeArm
										{
											OFFSET 34.140198 0.000000 0.000000
											CHANNELS 3 Xrotation Yrotation Zrotation
											JOINT LeftHand
											{
												OFFSET 40.960209 0.000000 0.000000
												CHANNELS 3 Xrotation Yrotation Zrotation
												End Site
												{
													OFFSET 0 0 0
												}
											}
										}
									}
								}
							}
						}
						JOINT RightShoulder_virtual
						{
							OFFSET 0.000000 0.000000 0.000000
							CHANNELS 3 Xrotation Yrotation Zrotation
							JOINT RightShoulder
							{
								OFFSET -6.292450 5.785301 -0.669000
								CHANNELS 3 Xrotation Yrotation Zrotation
								JOINT RightShoulder_split
								{
									OFFSET -6.292450 5.785301 -0.669000
									CHANNELS 3 Xrotation Yrotation Zrotation
									JOINT RightArm
									{
										OFFSET -13.907140 -6.093903 1.965100
										CHANNELS 3 Xrotation Yrotation Zrotation
										JOINT RightForeArm
										{
											OFFSET -34.140198 0.000000 0.000000
											CHANNELS 3 Xrotation Yrotation Zrotation
											JOINT RightHand
											{
												OFFSET -40.960209 0.000000 0.000000
												CHANNELS 3 Xrotation Yrotation Zrotation
												End Site
												{
													OFFSET 0 0 0
												}
											}
										}
									}
								}
							}
						}
					}
				}
			}
		}
	}
}
MOTION
Frames: 6
Frame Time: 0.03333333
2.448654 89.670799 1.086376 0.000000 0.000000 0.000000 -4.867910 -51.314740 0.488043 -34.593976 8.044253 16.381171 55.275649 -4.181213 4.344021 -17.007620 -8.730525 -12.879605 -1.659912 -0.064985 -0.748479 0.000000 0.000000 0.000000 -6.122005 -47.063241 0.775713 -22.055342 -10.628448 -27.791340 57.111163 -5.508183 -4.977498 -27.319379 -10.192633 25.847878 1.558366 0.864593 -0.224661 0.000000 0.000000 0.000000 -4.439306 -49.784890 1.356890 10.072477 6.233717 -1.470298 2.157605 1.189403 -1.000600 0.122004 -0.617499 0.569909 0.000000 0.000000 0.000000 2.679524 1.118671 -0.818591 -1.182633 13.260019 3.446291 8.730294 20.759376 -4.229588 0.000000 0.000000 0.000000 3.435881 0.982577 -1.013760 1.534351 2.440760 -11.631150 -2.256505 0.384177 0.235231 -52.262992 2.095662 -50.628313 -179.056606 -74.755519 -179.102341 0.000000 0.000000 0.000000 3.631068 1.166741 -0.823453 3.298439 11.652544 -5.753980 -2.650460 1.772540 0.558142 -50.183930 26.991868 88.220062 -173.765299 71.621405 171.256147 0.000000 0.000000 0.000000 
1.987245 90.115128 1.242535 0.000000 0.000000 0.000000 -4.680083 -51.235920 0.697030 -34.556055 8.449785 16.429250 54.480236 -4.509935 4.449006 -17.028375 -9.192568 -13.117330 -1.932087 -0.060104 -0.532937 0.000000 0.000000 0.000000 -5.735070 -47.309186 1.098581 -22.137359 -11.546601 -28.221432 56.235119 -5.293065 -4.734882 -25.963362 -9.076117 24.064992 1.107237 0.931088 0.377441 0.000000 0.000000 0.000000 -3.591020 -49.264939 2.008170 9.878404 6.356564 -1.606200 2.270585 1.268145 -1.066803 0.320812 -0.364300 0.548360 0.000000 0.000000 0.000000 2.647525 1.211662 -0.938046 -1.170377 13.163865 3.254078 8.942810 20.710582 -4.114728 0.000000 0.000000 0.000000 3.616414 1.033432 -1.053226 1.476708 1.919360 -11.005017 -2.315163 0.370440 -0.000185 -52.918359 2.778669 -50.419261 -179.539596 -75.530540 -179.381805 0.000000 0.000000 0.000000 3.809488 1.255931 -0.934481 3.404758 11.930256 -5.568887 -2.998078 2.545739 0.815127 -50.737910 27.498640 88.203485 -174.373691 71.939685 172.049419 0.000000 0.000000 0.000000 
1.145042 91.187111 1.336239 0.000000 0.000000 0.000000 -3.938843 -50.667641 1.402756 -34.442421 8.769697 16.367399 53.043819 -4.848350 4.632331 -16.844630 -10.035888 -13.217966 -2.302310 -0.061524 -0.182830 0.000000 0.000000 0.000000 -4.926590 -47.259076 1.948932 -23.086417 -11.359448 -29.140316 55.681471 -4.391118 -4.516162 -21.805191 -6.755350 23.271477 -2.284100 0.795292 1.857077 0.000000 0.000000 0.000000 -2.423024 -48.049855 2.998578 9.638137 6.638508 -1.883672 2.333274 1.480880 -1.219126 0.434047 -0.227920 0.538059 0.000000 0.000000 0.000000 2.578859 1.413373 -1.121011 -0.912752 13.009701 2.783644 9.232730 20.172129 -3.697347 0.000000 0.000000 0.000000 3.624533 1.221211 -1.188602 1.423015 0.850112 -10.286172 -2.066216 0.095277 -0.437819 -55.012041 3.553884 -49.100222 -179.973654 -75.399408 -179.564867 0.000000 0.000000 0.000000 3.920721 1.442195 -1.134953 3.545852 12.479229 -5.447536 -2.927665 2.478273 0.995045 -52.445915 27.341712 88.070795 -174.707633 72.678329 172.658016 0.000000 0.000000 0.000000 
0.060906 92.632065 1.344406 0.000000 0.000000 0.000000 -2.846341 -49.595185 2.327126 -34.296272 8.905892 16.273066 51.176432 -5.094369 4.848858 -16.485602 -11.068549 -13.131707 -2.580583 -0.060900 0.146799 0.000000 0.000000 0.000000 -3.798287 -46.646879 3.036623 -24.304318 -10.240784 -30.071117 55.259085 -3.118166 -4.415243 -17.078362 -4.071001 22.549410 -6.463444 0.372123 3.726137 0.000000 0.000000 0.000000 -1.233293 -46.407485 4.015288 9.368509 6.968255 -2.196747 2.312848 1.723393 -1.370883 0.353064 -0.267635 0.631093 0.000000 0.000000 0.000000 2.520838 1.640561 -1.260451 -0.501050 12.872284 2.167777 9.529907 19.271917 -3.047524 0.000000 0.000000 0.000000 3.463859 1.461767 -1.313815 1.410136 -0.588756 -9.530735 -1.719883 -0.456983 -1.025775 -58.229200 4.305849 -46.722684 179.868783 -74.419719 -179.468739 0.000000 0.000000 0.000000 3.902063 1.643386 -1.315158 3.691971 13.199032 -5.493440 -2.713418 1.615131 1.048663 -55.342629 26.419300 87.905627 -174.736361 73.961352 172.953026 0.000000 0.000000 0.000000 
-1.070974 94.197853 1.255875 0.000000 0.000000 0.000000 -1.703990 -48.142401 3.168122 -34.263695 8.867101 16.271157 49.134619 -5.236262 5.106083 -16.048651 -12.124566 -12.936777 -2.662500 -0.050684 0.310630 0.000000 0.000000 0.000000 -2.751106 -45.538012 3.896639 -25.620507 -8.832419 -30.612433 55.185186 -2.297816 -4.254915 -13.444031 -2.143249 20.833668 -8.244791 -0.114070 5.333425 0.000000 0.000000 0.000000 -0.121991 -44.609721 4.817552 9.092096 7.262340 -2.401636 2.215199 1.894598 -1.427510 0.239829 -0.293938 0.733063 0.000000 0.000000 0.000000 2.473547 1.791701 -1.258030 -0.091918 12.738124 1.616225 9.739215 18.254133 -2.263484 0.000000 0.000000 0.000000 3.191803 1.658788 -1.325685 1.461846 -2.199892 -8.850225 -1.588839 -0.936643 -1.542509 -62.225455 4.779376 -43.633127 179.818308 -72.945983 -179.335400 0.000000 0.000000 0.000000 3.734693 1.769774 -1.359559 3.828233 14.025145 -5.730723 -2.562466 0.586801 0.874242 -59.363175 24.788184 87.846458 -174.258712 75.825693 172.640476 0.000000 0.000000 0.000000 
-2.210577 95.590561 1.294758 0.000000 0.000000 0.000000 -0.845600 -46.463451 3.639760 -34.285856 8.743015 16.451026 47.264803 -5.464060 5.437944 -15.494395 -13.094968 -12.966531 -2.605008 -0.029391 0.266805 0.000000 0.000000 0.000000 -2.196682 -44.133544 4.272392 -26.959928 -7.782013 -30.744799 55.655100 -2.265180 -3.844750 -11.313781 -1.786841 18.308438 -6.718390 -0.383772 6.185384 0.000000 0.000000 0.000000 0.689338 -42.919351 5.227908 8.837124 7.440187 -2.425233 2.068745 1.904549 -1.343280 0.388754 -0.267179 0.789275 0.000000 0.000000 0.000000 2.445853 1.795625 -1.088245 0.189403 12.628181 1.329497 9.840455 17.358893 -1.463369 0.000000 0.000000 0.000000 2.875074 1.745306 -1.186166 1.563556 -3.878299 -8.366304 -1.588447 -1.253174 -1.902368 -66.246046 4.763374 -40.382384 179.781903 -71.560759 -179.283204 0.000000 0.000000 0.000000 3.477254 1.781254 -1.220356 3.950616 14.804618 -6.132856 -2.501942 -0.128366 0.377338 -64.078383 22.720399 88.113832 -173.043908 78.236436 171.468183 0.000000 0.000000 0.000000 
